<mxfile host="app.diagrams.net" agent="Mozilla/5.0 (Macintosh; Intel Mac OS X 10_15_7) AppleWebKit/537.36 (KHTML, like Gecko) Chrome/129.0.0.0 Safari/537.36" version="24.8.0">
  <diagram name="Page-1" id="2BhrJ0eAWoFTzYux2aYG">
    <mxGraphModel grid="1" page="1" gridSize="10" guides="1" tooltips="1" connect="1" arrows="1" fold="1" pageScale="1" pageWidth="850" pageHeight="1100" background="none" math="0" shadow="0">
      <root>
        <mxCell id="0" />
        <mxCell id="1" parent="0" />
        <mxCell id="e7hxGXKB_MdnEkJeCAOM-13" style="edgeStyle=orthogonalEdgeStyle;rounded=0;orthogonalLoop=1;jettySize=auto;html=1;shape=link;strokeColor=#B0B6BA;fillColor=#bac8d3;fontSize=18;" edge="1" parent="1" source="e7hxGXKB_MdnEkJeCAOM-1">
          <mxGeometry relative="1" as="geometry">
            <mxPoint x="410" y="430" as="targetPoint" />
          </mxGeometry>
        </mxCell>
        <mxCell id="e7hxGXKB_MdnEkJeCAOM-14" value="1. Send Events&lt;div style=&quot;font-size: 18px;&quot;&gt;&lt;div style=&quot;font-size: 18px;&quot;&gt;&lt;br style=&quot;font-size: 18px;&quot;&gt;&lt;/div&gt;&lt;/div&gt;" style="edgeLabel;html=1;align=center;verticalAlign=middle;resizable=0;points=[];fontSize=18;" vertex="1" connectable="0" parent="e7hxGXKB_MdnEkJeCAOM-13">
          <mxGeometry x="0.0422" y="-1" relative="1" as="geometry">
            <mxPoint as="offset" />
          </mxGeometry>
        </mxCell>
        <mxCell id="e7hxGXKB_MdnEkJeCAOM-1" value="windows 10 client - Wazuh Agent&lt;div style=&quot;font-size: 18px;&quot;&gt;&lt;br style=&quot;font-size: 18px;&quot;&gt;&lt;/div&gt;" style="fontColor=#0066CC;verticalAlign=top;verticalLabelPosition=bottom;labelPosition=center;align=center;html=1;outlineConnect=0;fillColor=#CCCCCC;strokeColor=#6881B3;gradientColor=none;gradientDirection=north;strokeWidth=2;shape=mxgraph.networks.pc;fontSize=18;" vertex="1" parent="1">
          <mxGeometry x="360" y="540" width="100" height="70" as="geometry" />
        </mxCell>
        <mxCell id="e7hxGXKB_MdnEkJeCAOM-15" style="edgeStyle=orthogonalEdgeStyle;rounded=0;orthogonalLoop=1;jettySize=auto;html=1;shape=link;strokeColor=#B0B6BA;fontSize=18;" edge="1" parent="1" source="e7hxGXKB_MdnEkJeCAOM-2">
          <mxGeometry relative="1" as="geometry">
            <mxPoint x="410" y="220" as="targetPoint" />
          </mxGeometry>
        </mxCell>
        <mxCell id="e7hxGXKB_MdnEkJeCAOM-2" value="Router&lt;div style=&quot;font-size: 18px;&quot;&gt;&lt;br style=&quot;font-size: 18px;&quot;&gt;&lt;/div&gt;" style="image;html=1;image=img/lib/clip_art/networking/Router_128x128.png;fontSize=18;" vertex="1" parent="1">
          <mxGeometry x="370" y="310" width="80" height="80" as="geometry" />
        </mxCell>
        <mxCell id="e7hxGXKB_MdnEkJeCAOM-16" style="edgeStyle=orthogonalEdgeStyle;rounded=0;orthogonalLoop=1;jettySize=auto;html=1;shape=link;fillColor=#b1ddf0;strokeColor=#10739e;fontSize=18;" edge="1" parent="1" source="e7hxGXKB_MdnEkJeCAOM-5">
          <mxGeometry relative="1" as="geometry">
            <mxPoint x="90" y="155" as="targetPoint" />
          </mxGeometry>
        </mxCell>
        <mxCell id="e7hxGXKB_MdnEkJeCAOM-17" value="2. Receive Events&amp;nbsp;" style="edgeLabel;html=1;align=center;verticalAlign=middle;resizable=0;points=[];fontSize=18;" vertex="1" connectable="0" parent="e7hxGXKB_MdnEkJeCAOM-16">
          <mxGeometry x="0.1266" y="4" relative="1" as="geometry">
            <mxPoint as="offset" />
          </mxGeometry>
        </mxCell>
        <mxCell id="G0d1akuxI3MhJxJiP8tx-3" style="edgeStyle=orthogonalEdgeStyle;rounded=0;orthogonalLoop=1;jettySize=auto;html=1;shape=link;fontSize=18;" edge="1" parent="1" source="e7hxGXKB_MdnEkJeCAOM-5">
          <mxGeometry relative="1" as="geometry">
            <mxPoint x="370" y="20" as="targetPoint" />
            <Array as="points">
              <mxPoint x="310" y="155" />
              <mxPoint x="310" y="50" />
              <mxPoint x="370" y="50" />
            </Array>
          </mxGeometry>
        </mxCell>
        <mxCell id="e7hxGXKB_MdnEkJeCAOM-5" value="Internet&lt;div style=&quot;font-size: 18px;&quot;&gt;&lt;br style=&quot;font-size: 18px;&quot;&gt;&lt;/div&gt;" style="image;aspect=fixed;perimeter=ellipsePerimeter;html=1;align=center;shadow=0;dashed=0;spacingTop=3;image=img/lib/active_directory/internet_globe.svg;fontSize=18;" vertex="1" parent="1">
          <mxGeometry x="380" y="130" width="50" height="50" as="geometry" />
        </mxCell>
        <mxCell id="e7hxGXKB_MdnEkJeCAOM-18" style="rounded=0;orthogonalLoop=1;jettySize=auto;html=1;shape=link;fillColor=#fad7ac;strokeColor=#b46504;fontSize=18;" edge="1" parent="1" source="e7hxGXKB_MdnEkJeCAOM-6">
          <mxGeometry relative="1" as="geometry">
            <mxPoint x="370" as="targetPoint" />
          </mxGeometry>
        </mxCell>
        <mxCell id="e7hxGXKB_MdnEkJeCAOM-19" value="3. Send Alerts" style="edgeLabel;html=1;align=center;verticalAlign=middle;resizable=0;points=[];fontSize=18;" vertex="1" connectable="0" parent="e7hxGXKB_MdnEkJeCAOM-18">
          <mxGeometry x="0.0841" y="1" relative="1" as="geometry">
            <mxPoint as="offset" />
          </mxGeometry>
        </mxCell>
        <mxCell id="G0d1akuxI3MhJxJiP8tx-6" style="rounded=0;orthogonalLoop=1;jettySize=auto;html=1;shape=link;fontSize=18;" edge="1" parent="1" source="e7hxGXKB_MdnEkJeCAOM-6">
          <mxGeometry relative="1" as="geometry">
            <mxPoint x="340" y="591.3333333333334" as="targetPoint" />
          </mxGeometry>
        </mxCell>
        <mxCell id="G0d1akuxI3MhJxJiP8tx-7" value="9. Perform Responsive Action" style="edgeLabel;html=1;align=center;verticalAlign=middle;resizable=0;points=[];fontSize=18;" connectable="0" vertex="1" parent="G0d1akuxI3MhJxJiP8tx-6">
          <mxGeometry x="-0.1484" y="-1" relative="1" as="geometry">
            <mxPoint as="offset" />
          </mxGeometry>
        </mxCell>
        <mxCell id="e7hxGXKB_MdnEkJeCAOM-6" value="&lt;div style=&quot;font-size: 18px;&quot;&gt;Wazuh Manager&lt;/div&gt;" style="image;aspect=fixed;perimeter=ellipsePerimeter;html=1;align=center;shadow=0;dashed=0;spacingTop=3;image=img/lib/active_directory/internet_globe.svg;fontSize=18;" vertex="1" parent="1">
          <mxGeometry x="20" y="130" width="50" height="50" as="geometry" />
        </mxCell>
        <mxCell id="e7hxGXKB_MdnEkJeCAOM-8" value="&lt;div style=&quot;font-size: 18px;&quot;&gt;TheHive&lt;/div&gt;" style="image;aspect=fixed;perimeter=ellipsePerimeter;html=1;align=center;shadow=0;dashed=0;spacingTop=3;image=img/lib/active_directory/internet_globe.svg;fontSize=18;" vertex="1" parent="1">
          <mxGeometry x="770" y="120" width="50" height="50" as="geometry" />
        </mxCell>
        <mxCell id="e7hxGXKB_MdnEkJeCAOM-21" style="edgeStyle=orthogonalEdgeStyle;rounded=0;orthogonalLoop=1;jettySize=auto;html=1;shape=link;fillColor=#d5e8d4;gradientColor=#97d077;strokeColor=#82b366;fontSize=18;" edge="1" parent="1" source="e7hxGXKB_MdnEkJeCAOM-11">
          <mxGeometry relative="1" as="geometry">
            <mxPoint x="400" y="120" as="targetPoint" />
          </mxGeometry>
        </mxCell>
        <mxCell id="e7hxGXKB_MdnEkJeCAOM-22" value="4. Enrich IOCs&lt;div style=&quot;font-size: 18px;&quot;&gt;&lt;br style=&quot;font-size: 18px;&quot;&gt;&lt;/div&gt;" style="edgeLabel;html=1;align=center;verticalAlign=middle;resizable=0;points=[];fontSize=18;" vertex="1" connectable="0" parent="e7hxGXKB_MdnEkJeCAOM-21">
          <mxGeometry x="0.145" y="-1" relative="1" as="geometry">
            <mxPoint x="-19" y="13" as="offset" />
          </mxGeometry>
        </mxCell>
        <mxCell id="e7hxGXKB_MdnEkJeCAOM-28" style="edgeStyle=orthogonalEdgeStyle;rounded=0;orthogonalLoop=1;jettySize=auto;html=1;shape=link;fillColor=#e6d0de;gradientColor=#d5739d;strokeColor=#996185;fontSize=18;" edge="1" parent="1" source="e7hxGXKB_MdnEkJeCAOM-11">
          <mxGeometry relative="1" as="geometry">
            <mxPoint x="430" y="120" as="targetPoint" />
          </mxGeometry>
        </mxCell>
        <mxCell id="e7hxGXKB_MdnEkJeCAOM-29" value="6. Send Email&amp;nbsp;&lt;div style=&quot;font-size: 18px;&quot;&gt;to SOC&lt;/div&gt;" style="edgeLabel;html=1;align=center;verticalAlign=middle;resizable=0;points=[];fontSize=18;" vertex="1" connectable="0" parent="e7hxGXKB_MdnEkJeCAOM-28">
          <mxGeometry x="0.2252" y="-2" relative="1" as="geometry">
            <mxPoint x="58" y="32" as="offset" />
          </mxGeometry>
        </mxCell>
        <mxCell id="G0d1akuxI3MhJxJiP8tx-4" style="edgeStyle=orthogonalEdgeStyle;rounded=0;orthogonalLoop=1;jettySize=auto;html=1;shape=link;fontSize=18;" edge="1" parent="1" source="e7hxGXKB_MdnEkJeCAOM-11">
          <mxGeometry relative="1" as="geometry">
            <mxPoint x="40" y="110" as="targetPoint" />
          </mxGeometry>
        </mxCell>
        <mxCell id="G0d1akuxI3MhJxJiP8tx-5" value="8. Send Response Action&lt;div style=&quot;font-size: 18px;&quot;&gt;&lt;br style=&quot;font-size: 18px;&quot;&gt;&lt;/div&gt;" style="edgeLabel;html=1;align=center;verticalAlign=middle;resizable=0;points=[];fontSize=18;" connectable="0" vertex="1" parent="G0d1akuxI3MhJxJiP8tx-4">
          <mxGeometry x="0.73" y="1" relative="1" as="geometry">
            <mxPoint y="-1" as="offset" />
          </mxGeometry>
        </mxCell>
        <mxCell id="e7hxGXKB_MdnEkJeCAOM-11" value="&lt;div style=&quot;font-size: 18px;&quot;&gt;Shuffle&lt;/div&gt;&lt;div style=&quot;font-size: 18px;&quot;&gt;&lt;br style=&quot;font-size: 18px;&quot;&gt;&lt;/div&gt;" style="image;aspect=fixed;perimeter=ellipsePerimeter;html=1;align=center;shadow=0;dashed=0;spacingTop=3;image=img/lib/active_directory/internet_globe.svg;fontSize=18;" vertex="1" parent="1">
          <mxGeometry x="375" y="-30" width="50" height="50" as="geometry" />
        </mxCell>
        <mxCell id="e7hxGXKB_MdnEkJeCAOM-30" style="rounded=0;orthogonalLoop=1;jettySize=auto;html=1;shape=link;fillColor=#e6d0de;gradientColor=#d5739d;strokeColor=#996185;fontSize=18;" edge="1" parent="1" source="e7hxGXKB_MdnEkJeCAOM-12">
          <mxGeometry relative="1" as="geometry">
            <mxPoint x="440" y="170" as="targetPoint" />
          </mxGeometry>
        </mxCell>
        <mxCell id="e7hxGXKB_MdnEkJeCAOM-32" value="7. Send and Receive&amp;nbsp;" style="edgeLabel;html=1;align=center;verticalAlign=middle;resizable=0;points=[];fontSize=18;" vertex="1" connectable="0" parent="e7hxGXKB_MdnEkJeCAOM-30">
          <mxGeometry x="-0.0093" y="3" relative="1" as="geometry">
            <mxPoint as="offset" />
          </mxGeometry>
        </mxCell>
        <mxCell id="G0d1akuxI3MhJxJiP8tx-1" style="rounded=0;orthogonalLoop=1;jettySize=auto;html=1;shape=link;fillColor=none;strokeColor=#000000;fontSize=18;" edge="1" parent="1" source="e7hxGXKB_MdnEkJeCAOM-12">
          <mxGeometry relative="1" as="geometry">
            <mxPoint x="440" y="210" as="targetPoint" />
            <Array as="points">
              <mxPoint x="510" y="320" />
            </Array>
          </mxGeometry>
        </mxCell>
        <mxCell id="G0d1akuxI3MhJxJiP8tx-2" value="8. Send Response Action" style="edgeLabel;html=1;align=center;verticalAlign=middle;resizable=0;points=[];fontSize=18;" connectable="0" vertex="1" parent="G0d1akuxI3MhJxJiP8tx-1">
          <mxGeometry x="-0.0532" y="4" relative="1" as="geometry">
            <mxPoint x="-1" as="offset" />
          </mxGeometry>
        </mxCell>
        <mxCell id="e7hxGXKB_MdnEkJeCAOM-12" value="&lt;div style=&quot;font-size: 18px;&quot;&gt;SOC Analyst&lt;/div&gt;&lt;div style=&quot;font-size: 18px;&quot;&gt;&lt;br style=&quot;font-size: 18px;&quot;&gt;&lt;/div&gt;" style="fontColor=#0066CC;verticalAlign=top;verticalLabelPosition=bottom;labelPosition=center;align=center;html=1;outlineConnect=0;fillColor=#CCCCCC;strokeColor=#6881B3;gradientColor=none;gradientDirection=north;strokeWidth=2;shape=mxgraph.networks.pc;fontSize=18;" vertex="1" parent="1">
          <mxGeometry x="670" y="330" width="100" height="70" as="geometry" />
        </mxCell>
        <mxCell id="e7hxGXKB_MdnEkJeCAOM-24" style="rounded=0;orthogonalLoop=1;jettySize=auto;html=1;shape=link;fillColor=#fad7ac;strokeColor=#b46504;fontSize=18;" edge="1" parent="1">
          <mxGeometry relative="1" as="geometry">
            <mxPoint x="760" y="130" as="targetPoint" />
            <mxPoint x="440" as="sourcePoint" />
          </mxGeometry>
        </mxCell>
        <mxCell id="e7hxGXKB_MdnEkJeCAOM-25" value="5. Send Alerts" style="edgeLabel;html=1;align=center;verticalAlign=middle;resizable=0;points=[];fontSize=18;" vertex="1" connectable="0" parent="e7hxGXKB_MdnEkJeCAOM-24">
          <mxGeometry x="0.0841" y="1" relative="1" as="geometry">
            <mxPoint as="offset" />
          </mxGeometry>
        </mxCell>
        <mxCell id="G0d1akuxI3MhJxJiP8tx-13" value="" style="edgeStyle=orthogonalEdgeStyle;rounded=0;orthogonalLoop=1;jettySize=auto;html=1;fontSize=18;" edge="1" parent="1" source="G0d1akuxI3MhJxJiP8tx-8" target="G0d1akuxI3MhJxJiP8tx-9">
          <mxGeometry relative="1" as="geometry" />
        </mxCell>
        <mxCell id="G0d1akuxI3MhJxJiP8tx-8" value="Windows 10&amp;nbsp;&lt;div style=&quot;font-size: 18px;&quot;&gt;Send Events&lt;/div&gt;" style="text;html=1;align=center;verticalAlign=middle;resizable=0;points=[];autosize=1;strokeColor=none;fillColor=none;fontSize=18;" vertex="1" parent="1">
          <mxGeometry x="-500" y="830" width="130" height="60" as="geometry" />
        </mxCell>
        <mxCell id="G0d1akuxI3MhJxJiP8tx-9" value="Wazuh Manger&lt;div style=&quot;font-size: 18px;&quot;&gt;Trigger Alerts and perform response actions&lt;/div&gt;&lt;div style=&quot;font-size: 18px;&quot;&gt;&lt;br style=&quot;font-size: 18px;&quot;&gt;&lt;/div&gt;" style="text;html=1;align=center;verticalAlign=middle;resizable=0;points=[];autosize=1;strokeColor=none;fillColor=none;fontSize=18;" vertex="1" parent="1">
          <mxGeometry x="-180" y="820" width="370" height="80" as="geometry" />
        </mxCell>
        <mxCell id="G0d1akuxI3MhJxJiP8tx-15" value="" style="edgeStyle=orthogonalEdgeStyle;rounded=0;orthogonalLoop=1;jettySize=auto;html=1;fontSize=18;" edge="1" parent="1" source="G0d1akuxI3MhJxJiP8tx-11" target="G0d1akuxI3MhJxJiP8tx-14">
          <mxGeometry relative="1" as="geometry" />
        </mxCell>
        <mxCell id="G0d1akuxI3MhJxJiP8tx-17" value="" style="edgeStyle=orthogonalEdgeStyle;rounded=0;orthogonalLoop=1;jettySize=auto;html=1;fontSize=18;" edge="1" parent="1" source="G0d1akuxI3MhJxJiP8tx-11" target="G0d1akuxI3MhJxJiP8tx-16">
          <mxGeometry relative="1" as="geometry" />
        </mxCell>
        <mxCell id="G0d1akuxI3MhJxJiP8tx-19" value="" style="edgeStyle=orthogonalEdgeStyle;rounded=0;orthogonalLoop=1;jettySize=auto;html=1;fontSize=18;" edge="1" parent="1" source="G0d1akuxI3MhJxJiP8tx-11" target="G0d1akuxI3MhJxJiP8tx-18">
          <mxGeometry relative="1" as="geometry" />
        </mxCell>
        <mxCell id="G0d1akuxI3MhJxJiP8tx-14" value="OSINT&lt;div style=&quot;font-size: 18px;&quot;&gt;Enrich IOCs&lt;/div&gt;" style="text;html=1;align=center;verticalAlign=middle;resizable=0;points=[];autosize=1;strokeColor=none;fillColor=none;fontSize=18;" vertex="1" parent="1">
          <mxGeometry x="630" y="670" width="120" height="60" as="geometry" />
        </mxCell>
        <mxCell id="G0d1akuxI3MhJxJiP8tx-16" value="TheHive&lt;div style=&quot;font-size: 18px;&quot;&gt;Create Alert in Case Management&lt;/div&gt;" style="text;html=1;align=center;verticalAlign=middle;resizable=0;points=[];autosize=1;strokeColor=none;fillColor=none;fontSize=18;" vertex="1" parent="1">
          <mxGeometry x="460" y="1020" width="290" height="60" as="geometry" />
        </mxCell>
        <mxCell id="G0d1akuxI3MhJxJiP8tx-18" value="&lt;div style=&quot;font-size: 18px;&quot;&gt;Email&amp;nbsp;&lt;/div&gt;&lt;div style=&quot;font-size: 18px;&quot;&gt;Send Email and responsive actions&lt;/div&gt;" style="text;html=1;align=center;verticalAlign=middle;resizable=0;points=[];autosize=1;strokeColor=none;fillColor=none;fontSize=18;" vertex="1" parent="1">
          <mxGeometry x="910" y="830" width="300" height="60" as="geometry" />
        </mxCell>
        <mxCell id="G0d1akuxI3MhJxJiP8tx-20" value="" style="edgeStyle=orthogonalEdgeStyle;rounded=0;orthogonalLoop=1;jettySize=auto;html=1;fontSize=18;" edge="1" parent="1" source="G0d1akuxI3MhJxJiP8tx-9" target="G0d1akuxI3MhJxJiP8tx-11">
          <mxGeometry relative="1" as="geometry">
            <mxPoint x="190" y="743" as="sourcePoint" />
            <mxPoint x="440" y="743" as="targetPoint" />
          </mxGeometry>
        </mxCell>
        <mxCell id="G0d1akuxI3MhJxJiP8tx-11" value="&lt;div style=&quot;font-size: 18px;&quot;&gt;Shuffle&amp;nbsp;&lt;/div&gt;&lt;div style=&quot;font-size: 18px;&quot;&gt;Receive Wazauh Alerts and send responsive actions&lt;/div&gt;&lt;div style=&quot;font-size: 18px;&quot;&gt;&lt;br style=&quot;font-size: 18px;&quot;&gt;&lt;/div&gt;" style="text;html=1;align=center;verticalAlign=middle;resizable=0;points=[];autosize=1;strokeColor=none;fillColor=none;fontSize=18;" vertex="1" parent="1">
          <mxGeometry x="300" y="820" width="440" height="80" as="geometry" />
        </mxCell>
        <mxCell id="G0d1akuxI3MhJxJiP8tx-22" value="&lt;font style=&quot;font-size: 24px;&quot;&gt;Wuzah - SIEM/XDR&lt;/font&gt;&lt;div&gt;&lt;font style=&quot;font-size: 24px;&quot;&gt;TheHive - Case Management&lt;/font&gt;&lt;/div&gt;&lt;div&gt;&lt;font style=&quot;font-size: 24px;&quot;&gt;Shuffle - SOAR&lt;/font&gt;&lt;/div&gt;" style="text;html=1;align=center;verticalAlign=middle;resizable=0;points=[];autosize=1;strokeColor=none;fillColor=none;" vertex="1" parent="1">
          <mxGeometry x="-500" y="-180" width="340" height="100" as="geometry" />
        </mxCell>
        <mxCell id="G0d1akuxI3MhJxJiP8tx-24" value="&lt;font style=&quot;font-size: 24px;&quot;&gt;Three host - 1pc and 2 servers&amp;nbsp;&lt;/font&gt;&lt;div&gt;&lt;font style=&quot;font-size: 24px;&quot;&gt;Wuzah and TheHive are in the cloud&lt;/font&gt;&lt;/div&gt;&lt;div&gt;&lt;br&gt;&lt;/div&gt;" style="text;html=1;align=center;verticalAlign=middle;resizable=0;points=[];autosize=1;strokeColor=none;fillColor=none;" vertex="1" parent="1">
          <mxGeometry x="-610" y="58" width="410" height="90" as="geometry" />
        </mxCell>
      </root>
    </mxGraphModel>
  </diagram>
</mxfile>
